<?xml version="1.0" encoding="UTF-8"?>
<svg width="1820px" height="3900px" viewBox="0 0 1820 3900" version="1.1" xmlns="http://www.w3.org/2000/svg" xmlns:xlink="http://www.w3.org/1999/xlink">
    <!-- Generator: Sketch 50.2 (55047) - http://www.bohemiancoding.com/sketch -->
    <title>Irgendwos</title>
    <desc>Created with Sketch.</desc>
    <defs></defs>
    <g id="Irgendwos" stroke="none" stroke-width="1" fill="none" fill-rule="evenodd">
        <g id="Group-19" transform="translate(5.000000, 6.000000)" fill="#EEEEFA" fill-rule="nonzero">
            <path d="M305.5,611 C136.777009,611 0,474.222991 0,305.5 C0,136.777009 136.777009,0 305.5,0 C474.222991,0 611,136.777009 611,305.5 C611,474.222991 474.222991,611 305.5,611 Z M305.5,551 C441.085906,551 551,441.085906 551,305.5 C551,169.914094 441.085906,60 305.5,60 C169.914094,60 60,169.914094 60,305.5 C60,441.085906 169.914094,551 305.5,551 Z" id="Oval-2-Copy-2"></path>
            <path d="M1412.5,1967 C1199.04194,1967 1026,1793.95806 1026,1580.5 C1026,1367.04194 1199.04194,1194 1412.5,1194 C1625.95806,1194 1799,1367.04194 1799,1580.5 C1799,1793.95806 1625.95806,1967 1412.5,1967 Z M1412.5,1907 C1592.82097,1907 1739,1760.82097 1739,1580.5 C1739,1400.17903 1592.82097,1254 1412.5,1254 C1232.17903,1254 1086,1400.17903 1086,1580.5 C1086,1760.82097 1232.17903,1907 1412.5,1907 Z" id="Oval-2-Copy-4"></path>
            <path d="M306,463 C219.843579,463 150,393.156421 150,307 C150,220.843579 219.843579,151 306,151 C392.156421,151 462,220.843579 462,307 C462,393.156421 392.156421,463 306,463 Z M306,423 C370.065031,423 422,371.065031 422,307 C422,242.934969 370.065031,191 306,191 C241.934969,191 190,242.934969 190,307 C190,371.065031 241.934969,423 306,423 Z" id="Oval-2-Copy-2" fill-opacity="0.5"></path>
            <path d="M668.5,3133 C499.777009,3133 363,2996.22299 363,2827.5 C363,2658.77701 499.777009,2522 668.5,2522 C837.222991,2522 974,2658.77701 974,2827.5 C974,2996.22299 837.222991,3133 668.5,3133 Z M668.5,3073 C804.085906,3073 914,2963.08591 914,2827.5 C914,2691.91409 804.085906,2582 668.5,2582 C532.914094,2582 423,2691.91409 423,2827.5 C423,2963.08591 532.914094,3073 668.5,3073 Z" id="Oval-2-Copy-2"></path>
            <path d="M669,2954 C599.412122,2954 543,2897.58788 543,2828 C543,2758.41212 599.412122,2702 669,2702 C738.587878,2702 795,2758.41212 795,2828 C795,2897.58788 738.587878,2954 669,2954 Z M669,2914 C716.496488,2914 755,2875.49649 755,2828 C755,2780.50351 716.496488,2742 669,2742 C621.503512,2742 583,2780.50351 583,2828 C583,2875.49649 621.503512,2914 669,2914 Z" id="Oval-2-Copy-2" fill-opacity="0.5"></path>
            <path d="M1413,1875 C1250.62828,1875 1119,1743.37172 1119,1581 C1119,1418.62828 1250.62828,1287 1413,1287 C1575.37172,1287 1707,1418.62828 1707,1581 C1707,1743.37172 1575.37172,1875 1413,1875 Z M1413,1835 C1553.28033,1835 1667,1721.28033 1667,1581 C1667,1440.71967 1553.28033,1327 1413,1327 C1272.71967,1327 1159,1440.71967 1159,1581 C1159,1721.28033 1272.71967,1835 1413,1835 Z" id="Oval-2-Copy-5" fill-opacity="0.5"></path>
            <path d="M1423,1654 C1388.20606,1654 1360,1625.79394 1360,1591 C1360,1556.20606 1388.20606,1528 1423,1528 C1457.79394,1528 1486,1556.20606 1486,1591 C1486,1625.79394 1457.79394,1654 1423,1654 Z M1423,1606.45283 C1431.53436,1606.45283 1438.45283,1599.53436 1438.45283,1591 C1438.45283,1582.46564 1431.53436,1575.54717 1423,1575.54717 C1414.46564,1575.54717 1407.54717,1582.46564 1407.54717,1591 C1407.54717,1599.53436 1414.46564,1606.45283 1423,1606.45283 Z" id="Oval-2-Copy-5"></path>
        </g>
    </g>
</svg>